<svg viewBox="0 0 464 76" xmlns="http://www.w3.org/2000/svg" style="fill-rule:evenodd;clip-rule:evenodd">
  <path d="m53.515 38 17.931 17.727-17.931 17.726L48 67.998l12.416-12.272L48 43.454 53.515 38Z" transform="translate(-20 -18)"/>
  <path d="M81 18c8.284 0 15 6.716 15 15v46c0 8.284-6.716 15-15 15H35c-8.284 0-15-6.716-15-15V33c0-8.284 6.716-15 15-15h46Zm0 6H35c-4.971 0-9 4.029-9 9v46c0 4.971 4.029 9 9 9h46c4.971 0 9-4.029 9-9V33c0-4.971-4.029-9-9-9Zm34.695 53c.988 0 1.805-.332 2.451-.997.646-.666.969-1.492.969-2.48v-5.985l2.793-2.565 10.26 10.83c.684.76 1.52 1.14 2.508 1.14.836 0 1.625-.323 2.365-.969.741-.646 1.112-1.444 1.112-2.394 0-.95-.361-1.805-1.083-2.565l-9.975-10.83 8.607-7.923c.912-.798 1.368-1.653 1.368-2.565 0-.722-.333-1.434-.997-2.137-.665-.704-1.416-1.055-2.252-1.055-.95 0-1.786.361-2.508 1.083l-12.198 11.799v-21.09c0-.988-.323-1.815-.969-2.48-.646-.665-1.463-.997-2.451-.997s-1.805.332-2.451.997c-.646.665-.969 1.492-.969 2.48v35.226c0 .988.323 1.814.969 2.48.646.665 1.463.997 2.451.997Zm38.983.57c2.85 0 5.463-.665 7.838-1.995s4.246-3.202 5.614-5.614c1.368-2.413 2.052-5.14 2.052-8.18s-.684-5.767-2.052-8.18c-1.368-2.413-3.239-4.294-5.614-5.643-2.375-1.349-4.988-2.023-7.838-2.023-2.888 0-5.51.674-7.866 2.023-2.356 1.349-4.218 3.23-5.586 5.643-1.368 2.413-2.052 5.14-2.052 8.18s.684 5.766 2.052 8.18c1.368 2.413 3.23 4.284 5.586 5.614 2.356 1.33 4.978 1.995 7.866 1.995Zm0-6.27c-1.596 0-3.049-.399-4.36-1.197-1.312-.798-2.356-1.919-3.135-3.363-.779-1.444-1.169-3.097-1.169-4.959 0-1.862.39-3.525 1.169-4.988.779-1.462 1.824-2.593 3.135-3.391 1.31-.798 2.764-1.197 4.36-1.197 1.596 0 3.05.399 4.361 1.197s2.356 1.928 3.135 3.391c.778 1.463 1.168 3.126 1.168 4.988 0 1.862-.39 3.515-1.168 4.959-.779 1.444-1.825 2.565-3.135 3.363-1.311.798-2.765 1.197-4.361 1.197Zm32.998 6.27c2.85 0 5.463-.665 7.838-1.995s4.246-3.202 5.614-5.614c1.368-2.413 2.052-5.14 2.052-8.18s-.684-5.767-2.052-8.18c-1.368-2.413-3.239-4.294-5.614-5.643-2.375-1.349-4.988-2.023-7.838-2.023-2.888 0-5.51.674-7.866 2.023-2.356 1.349-4.218 3.23-5.586 5.643-1.368 2.413-2.052 5.14-2.052 8.18s.684 5.766 2.052 8.18c1.368 2.413 3.23 4.284 5.586 5.614 2.356 1.33 4.978 1.995 7.866 1.995Zm0-6.27c-1.596 0-3.049-.399-4.361-1.197-1.311-.798-2.355-1.919-3.134-3.363-.779-1.444-1.169-3.097-1.169-4.959 0-1.862.39-3.525 1.169-4.988.779-1.462 1.824-2.593 3.134-3.391 1.311-.798 2.765-1.197 4.361-1.197 1.596 0 3.049.399 4.361 1.197 1.311.798 2.355 1.928 3.134 3.391.779 1.463 1.169 3.126 1.169 4.988 0 1.862-.39 3.515-1.169 4.959-.779 1.444-1.824 2.565-3.134 3.363-1.311.798-2.765 1.197-4.361 1.197Zm31.516 6.27c1.786 0 3.486-.389 5.101-1.168 1.615-.779 2.898-1.72 3.848-2.822.038.988.37 1.805.997 2.451.627.646 1.435.969 2.423.969s1.805-.333 2.451-.998c.646-.665.969-1.491.969-2.479V38.297c0-1.026-.323-1.862-.969-2.508-.646-.646-1.463-.969-2.451-.969s-1.805.332-2.451.997c-.646.665-.969 1.492-.969 2.48v11.172c-1.102-1.026-2.451-1.872-4.047-2.537-1.596-.665-3.306-.997-5.13-.997-2.546 0-4.873.674-6.982 2.023-2.109 1.349-3.772 3.23-4.988 5.643-1.216 2.413-1.824 5.14-1.824 8.18s.618 5.757 1.852 8.151c1.235 2.394 2.917 4.265 5.045 5.614 2.128 1.349 4.503 2.024 7.125 2.024Zm.855-6.27c-2.47 0-4.475-.903-6.014-2.707-1.539-1.805-2.308-4.076-2.308-6.812 0-2.736.779-5.016 2.337-6.84 1.558-1.824 3.553-2.736 5.985-2.736 2.47 0 4.484.912 6.042 2.736 1.558 1.824 2.337 4.104 2.337 6.84 0 2.736-.779 5.007-2.337 6.812-1.558 1.804-3.572 2.707-6.042 2.707Zm23.308-28.5c1.33 0 2.27-.2 2.821-.599.551-.399.827-1.149.827-2.251v-1.083c0-1.064-.266-1.805-.798-2.223-.532-.418-1.463-.627-2.793-.627-1.254 0-2.166.209-2.736.627-.57.418-.855 1.159-.855 2.223v1.083c0 1.064.266 1.805.798 2.223.532.418 1.444.627 2.736.627Zm.057 34.2c.988 0 1.805-.332 2.451-.997.646-.666.969-1.492.969-2.48V49.982c0-.988-.323-1.815-.969-2.479-.646-.665-1.463-.998-2.451-.998s-1.805.333-2.451.998c-.646.664-.969 1.491-.969 2.479v23.541c0 .988.323 1.814.969 2.48.646.665 1.463.997 2.451.997Zm12.421 0c.988 0 1.805-.332 2.451-.997.646-.666.969-1.492.969-2.48v-5.985l2.793-2.565 10.26 10.83c.684.76 1.52 1.14 2.508 1.14.836 0 1.624-.323 2.365-.969.741-.646 1.112-1.444 1.112-2.394 0-.95-.361-1.805-1.083-2.565l-9.975-10.83 8.607-7.923c.912-.798 1.368-1.653 1.368-2.565 0-.722-.333-1.434-.998-2.137-.665-.704-1.415-1.055-2.251-1.055-.95 0-1.786.361-2.508 1.083l-12.198 11.799v-21.09c0-.988-.323-1.815-.969-2.48-.646-.665-1.463-.997-2.451-.997s-1.805.332-2.451.997c-.646.665-.969 1.492-.969 2.48v35.226c0 .988.323 1.814.969 2.48.646.665 1.463.997 2.451.997Zm30.091 0c.988 0 1.814-.332 2.479-.997.665-.666.998-1.492.998-2.48V38.297c0-.988-.323-1.815-.969-2.48-.646-.665-1.444-.997-2.394-.997-.988 0-1.815.332-2.48.997s-.997 1.492-.997 2.48v35.226c0 .988.323 1.814.969 2.48.646.665 1.444.997 2.394.997Zm12.421-34.2c1.33 0 2.27-.2 2.821-.599.551-.399.827-1.149.827-2.251v-1.083c0-1.064-.266-1.805-.798-2.223-.532-.418-1.463-.627-2.793-.627-1.254 0-2.166.209-2.736.627-.57.418-.855 1.159-.855 2.223v1.083c0 1.064.266 1.805.798 2.223.532.418 1.444.627 2.736.627Zm.057 34.2c.988 0 1.805-.332 2.451-.997.646-.666.969-1.492.969-2.48V49.982c0-.988-.323-1.815-.969-2.479-.646-.665-1.463-.998-2.451-.998s-1.805.333-2.451.998c-.646.664-.969 1.491-.969 2.479v23.541c0 .988.323 1.814.969 2.48.646.665 1.463.997 2.451.997Zm31.573 0c.988 0 1.805-.332 2.451-.997.646-.666.969-1.492.969-2.48V58.931c0-4.066-.741-7.248-2.223-9.547-1.482-2.299-4.161-3.449-8.037-3.449-1.976 0-3.791.494-5.444 1.482s-2.992 2.166-4.018 3.534v-.969c0-.988-.323-1.815-.969-2.48-.646-.665-1.463-.997-2.451-.997s-1.805.332-2.451.997c-.646.665-.969 1.492-.969 2.48v23.541c0 .988.323 1.814.969 2.48.646.665 1.463.997 2.451.997s1.805-.332 2.451-.997c.646-.666.969-1.492.969-2.48V58.931c0-1.938.627-3.544 1.881-4.816 1.254-1.273 2.983-1.91 5.187-1.91 2.128 0 3.629.599 4.503 1.795.874 1.197 1.311 2.841 1.311 4.931v14.592c0 .988.323 1.814.969 2.48.646.665 1.463.997 2.451.997Zm11.794-34.2c1.33 0 2.27-.2 2.821-.599.551-.399.827-1.149.827-2.251v-1.083c0-1.064-.266-1.805-.798-2.223-.532-.418-1.463-.627-2.793-.627-1.254 0-2.166.209-2.736.627-.57.418-.855 1.159-.855 2.223v1.083c0 1.064.266 1.805.798 2.223.532.418 1.444.627 2.736.627Zm.057 34.2c.988 0 1.805-.332 2.451-.997.646-.666.969-1.492.969-2.48V49.982c0-.988-.323-1.815-.969-2.479-.646-.665-1.463-.998-2.451-.998s-1.805.333-2.451.998c-.646.664-.969 1.491-.969 2.479v23.541c0 .988.323 1.814.969 2.48.646.665 1.463.997 2.451.997Zm12.421 0c.988 0 1.805-.332 2.451-.997.646-.666.969-1.492.969-2.48v-5.985l2.793-2.565 10.26 10.83c.684.76 1.52 1.14 2.508 1.14.836 0 1.624-.323 2.365-.969.741-.646 1.112-1.444 1.112-2.394 0-.95-.361-1.805-1.083-2.565l-9.975-10.83 8.607-7.923c.912-.798 1.368-1.653 1.368-2.565 0-.722-.333-1.434-.998-2.137-.665-.704-1.415-1.055-2.251-1.055-.95 0-1.786.361-2.508 1.083l-12.198 11.799v-21.09c0-.988-.323-1.815-.969-2.48-.646-.665-1.463-.997-2.451-.997s-1.805.332-2.451.997c-.646.665-.969 1.492-.969 2.48v35.226c0 .988.323 1.814.969 2.48.646.665 1.463.997 2.451.997Zm30.148 0c.988 0 1.805-.332 2.451-.997.646-.666.969-1.492.969-2.48v-5.985l2.793-2.565 10.26 10.83c.684.76 1.52 1.14 2.508 1.14.836 0 1.624-.323 2.365-.969.741-.646 1.112-1.444 1.112-2.394 0-.95-.361-1.805-1.083-2.565l-9.975-10.83 8.607-7.923c.912-.798 1.368-1.653 1.368-2.565 0-.722-.333-1.434-.998-2.137-.665-.704-1.415-1.055-2.251-1.055-.95 0-1.786.361-2.508 1.083l-12.198 11.799v-21.09c0-.988-.323-1.815-.969-2.48-.646-.665-1.463-.997-2.451-.997s-1.805.332-2.451.997c-.646.665-.969 1.492-.969 2.48v35.226c0 .988.323 1.814.969 2.48.646.665 1.463.997 2.451.997Zm38.527.57c1.786 0 3.486-.389 5.101-1.168 1.615-.779 2.898-1.72 3.848-2.822.038.988.37 1.805.997 2.451.627.646 1.435.969 2.423.969s1.805-.333 2.451-.998c.646-.665.969-1.491.969-2.479V49.412c0-1.026-.323-1.862-.969-2.508-.646-.646-1.463-.969-2.451-.969s-1.805.333-2.451.998c-.646.664-.969 1.491-.969 2.479v.057c-1.102-1.026-2.451-1.871-4.047-2.536-1.596-.665-3.306-.998-5.13-.998-2.546 0-4.874.675-6.983 2.024s-3.771 3.23-4.987 5.643c-1.216 2.413-1.824 5.139-1.824 8.179s.617 5.757 1.852 8.151 2.917 4.266 5.045 5.615c2.128 1.349 4.503 2.023 7.125 2.023Zm.855-6.27c-2.47 0-4.475-.903-6.014-2.707-1.539-1.805-2.308-4.076-2.308-6.812 0-2.736.779-5.016 2.337-6.84 1.558-1.824 3.553-2.736 5.985-2.736 2.47 0 4.484.912 6.042 2.736 1.558 1.824 2.337 4.104 2.337 6.84 0 2.736-.779 5.007-2.337 6.812-1.558 1.804-3.572 2.707-6.042 2.707Zm24.106 5.643c1.102 0 1.947-.294 2.536-.883s.884-1.435.884-2.537v-.969c0-1.102-.295-1.947-.884-2.536s-1.434-.884-2.536-.884h-.741c-1.102 0-1.948.295-2.537.884s-.883 1.434-.883 2.536v.969c0 1.102.294 1.948.883 2.537s1.435.883 2.537.883h.741Zm13.126.057c.988 0 1.805-.332 2.451-.997.646-.666.969-1.492.969-2.48V53.345h5.187c.912 0 1.672-.294 2.28-.883.608-.589.912-1.34.912-2.252 0-.912-.304-1.662-.912-2.251-.608-.589-1.368-.884-2.28-.884h-5.187v-2.679c0-.874.266-1.681.798-2.422.532-.741 1.444-1.112 2.736-1.112.608 0 1.368.114 2.28.342.228.038.446.076.655.114.209.038.409.057.599.057.76 0 1.406-.285 1.938-.855.532-.57.798-1.311.798-2.223 0-1.178-.523-2.052-1.568-2.622-1.045-.57-2.27-.855-3.676-.855-3.686 0-6.508.893-8.465 2.679-1.957 1.786-2.935 4.104-2.935 6.954v2.622h-3.078c-.912 0-1.672.295-2.28.884-.608.589-.912 1.339-.912 2.251 0 .912.304 1.663.912 2.252.608.589 1.368.883 2.28.883h3.078v20.178c0 .988.323 1.815.969 2.48.646.665 1.463.997 2.451.997Zm19.038-34.2c1.33 0 2.27-.2 2.821-.599.551-.399.827-1.149.827-2.251v-1.083c0-1.064-.266-1.805-.798-2.223-.532-.418-1.463-.627-2.793-.627-1.254 0-2.166.209-2.736.627-.57.418-.855 1.159-.855 2.223v1.083c0 1.064.266 1.805.798 2.223.532.418 1.444.627 2.736.627Zm.057 34.2c.988 0 1.805-.332 2.451-.997.646-.666.969-1.492.969-2.48V49.982c0-.988-.323-1.815-.969-2.479-.646-.665-1.463-.998-2.451-.998s-1.805.333-2.451.998c-.646.664-.969 1.491-.969 2.479v23.541c0 .988.323 1.814.969 2.48.646.665 1.463.997 2.451.997Z" style="fill-rule:nonzero" transform="translate(-20 -18)"/>
</svg>
